<?xml version="1.0" encoding="utf-8"?>
<!-- Generator: Adobe Illustrator 26.1.0, SVG Export Plug-In . SVG Version: 6.00 Build 0)  -->
<svg version="1.1" id="Layer_1" xmlns="http://www.w3.org/2000/svg" xmlns:xlink="http://www.w3.org/1999/xlink" x="0px" y="0px"
	 viewBox="0 0 100 100" style="enable-background:new 0 0 100 100;" xml:space="preserve">
<style type="text/css">
	.st0{fill:#2E3192;}
</style>
<path class="st0" d="M50.4,0.9C23.3,0.9,1.3,22.9,1.3,50s22,49.1,49.1,49.1s49.1-22,49.1-49.1S77.6,0.9,50.4,0.9z M59,79
	c0,4.4-3.8,8-8.5,8S42,83.4,42,79V42.5c0-4.4,3.8-8,8.5-8s8.5,3.6,8.5,8V79z M50.4,31.2c-5,0-9.1-4.1-9.1-9.1c0-5,4.1-9.1,9.1-9.1
	c5,0,9.1,4.1,9.1,9.1C59.6,27.1,55.5,31.2,50.4,31.2z"/>
</svg>
