<?xml version="1.0" encoding="UTF-8"?><svg id="a" xmlns="http://www.w3.org/2000/svg" viewBox="0 0 511.51 490.44"><defs><style>.b{fill:#231f20;fill-rule:evenodd;}</style></defs><path class="b" d="M27.08,157.18c4.22,.86,12.88-.4,16.9-2.98,7.21-4.64,8.06-11.79,12.92-18.89v-40.76c27.84,27.5,55.68,55.02,83.52,82.52,10.35,10.34,26.42,25.61,45.73,11.93,9.61-6.81,14.92-25.92,6.96-38.77-7.31-11.8-26.49-26.49-36.79-36.79-13.26-13.26-26.51-26.51-39.77-39.77-5.48-5.48-10.32-12.62-16.9-16.9v-.99c18.4,.29,39.25,1.73,49.71-5.96,12.68-9.33,10.82-36.19-.99-44.74C139.85-1.1,124.46,.09,109.6,.09H24.1C14.47,7.57,5,9.48,1.23,22.96V61.73c0,21.24-4.57,71.8,3.98,84.51,4.77,7.09,11.62,8.85,21.87,10.94Zm297.27,31.82c7.73,5.55,24.14,6.76,32.81,.99,31.81-32.14,63.63-64.3,95.44-96.44h.99c-.64,36.09-5.05,58.08,26.84,63.63,3.8,.66,11.99-.58,15.91-2.98,19.96-12.25,12.93-67.28,12.92-99.42,0-10.29,2.4-26.48-.99-34.8-3.39-8.3-12.8-17.3-21.87-19.88h-114.34c-2.9,2.24-6.92,2.8-9.94,4.97-11.02,7.92-13.73,28.65-4.97,40.76,3.93,5.43,11.28,6.09,16.9,9.94h36.79v.99c-7.3,4.79-12.78,12.78-18.89,18.89-13.92,13.92-27.84,27.84-41.76,41.76-9.23,9.23-27.49,23.19-33.8,33.8-7.77,13.06-.53,31.68,7.95,37.78Zm-160.07,106.38c-3.65,1.33-7.29,2.65-10.94,3.98-7.15,4.71-12.87,12.87-18.89,18.89-14.25,14.25-28.5,28.5-42.75,42.75-10.78,10.78-25.33,21.05-33.8,33.8h-.99c.24-13.06,3.1-33.78-.99-44.74-5.46-14.63-27.21-25.04-43.75-13.92-10.8,7.26-10.94,20.3-10.94,38.77,0,31.13-6.65,95.6,10.94,108.37,10.4,7.55,29.54,5.97,47.72,5.97h55.68c8.17,0,19.32,1.47,25.85-.99,5.28-1.99,8.89-6.47,11.93-10.94,4.65-6.81,7.66-21.7,1.99-30.82-4.51-7.26-11.83-8.11-18.89-12.93h-36.79c31.15-31.48,62.31-62.97,93.46-94.45,14.16-22.74-4.57-44-28.83-43.74Zm342.01,47.72c-4.93-7.34-11.93-9.1-22.87-10.94-3.74-.63-12.06,.52-15.91,2.98-7.22,4.63-8.05,11.81-12.92,18.89v40.76c-24.52-24.19-49.05-48.39-73.57-72.58-12.05-12.05-19.41-26.89-43.75-26.84-2.98,.99-5.97,1.99-8.95,2.98-7.26,4.3-17.52,16.34-13.92,30.82,3.68,14.78,17.44,23.4,26.84,32.81,16.24,16.24,32.48,32.48,48.72,48.72,7.03,7.03,13.48,16.39,21.87,21.87v.99c-28.08-.51-48.91-2.28-56.67,17.9-1.3,3.39-3.66,11.82-1.99,17.9,.77,2.81,3.21,7.49,4.97,9.94,7.46,10.37,21.62,9.94,39.77,9.94,31.1,0,93.39,6.53,106.38-10.94,7.85-10.55,5.97-31.17,5.97-49.71,0-21.41,4.62-72.69-3.98-85.5Z"/></svg>