<?xml version="1.0" encoding="utf-8"?>
<!-- Generator: Adobe Illustrator 26.1.0, SVG Export Plug-In . SVG Version: 6.00 Build 0)  -->
<svg version="1.1" id="a" xmlns="http://www.w3.org/2000/svg" xmlns:xlink="http://www.w3.org/1999/xlink" x="0px" y="0px"
	 viewBox="0 0 224.4 51.5" style="enable-background:new 0 0 224.4 51.5;" xml:space="preserve">
<style type="text/css">
	.st0{fill:#2E3192;}
	.st1{fill:#A7A9AC;}
</style>
<path class="st0" d="M13.2,13.6H3.3l1.2-5.7h26.6l-1.2,5.7h-9.8l-5.9,28.1H7.2L13.2,13.6z"/>
<path class="st0" d="M61.9,21.5c0,10.4-5.8,20.7-18.6,20.7c-9,0-13.3-5.9-13.3-13.6c0-10,6.1-21.2,18.4-21.2
	C57.7,7.4,61.9,13.7,61.9,21.5L61.9,21.5z M37.1,28.3c0,5.1,2.3,8.3,7.1,8.3c7.6,0,10.7-8.2,10.7-15.3c0-4.9-2-8.4-6.9-8.4
	C40.8,13,37.2,21.2,37.1,28.3L37.1,28.3z"/>
<path class="st0" d="M71.8,7.9h10.9c8.8,0,14.5,5.3,14.5,14.4c0,10.9-7,19.4-19.4,19.4H64.7C64.7,41.7,71.8,7.9,71.8,7.9z
	 M72.7,36.2H78c7.3,0,11.9-5.2,11.9-13.8c0-6-2.9-9-8.1-9h-4.3L72.7,36.2z"/>
<path class="st0" d="M133.3,21.5c0,10.4-5.8,20.7-18.6,20.7c-9,0-13.3-5.9-13.3-13.6c0-10,6.1-21.2,18.4-21.2
	C129,7.4,133.3,13.7,133.3,21.5L133.3,21.5z M108.5,28.3c0,5.1,2.3,8.3,7.1,8.3c7.6,0,10.7-8.2,10.7-15.3c0-4.9-2-8.4-6.9-8.4
	C112.1,13,108.5,21.2,108.5,28.3L108.5,28.3z"/>
<path class="st1" d="M156.6,22.6v19.1h-2.4v-3.3c-1,1.2-2.2,2.2-3.5,2.8s-2.7,1-4.2,1c-2.7,0-5-1-6.9-2.9s-2.9-4.3-2.9-7.2
	s1-5.1,2.9-7.1s4.3-2.9,7-2.9c1.6,0,3,0.3,4.3,1s2.4,1.7,3.4,3v-3.5L156.6,22.6L156.6,22.6z M146.8,24.4c-1.4,0-2.6,0.3-3.8,1
	c-1.2,0.7-2.1,1.6-2.8,2.8c-0.7,1.2-1,2.5-1,3.9s0.4,2.6,1,3.9s1.6,2.2,2.8,2.9c1.2,0.7,2.4,1,3.8,1s2.6-0.3,3.8-1s2.1-1.6,2.8-2.8
	s1-2.5,1-3.9c0-2.2-0.7-4.1-2.2-5.5S148.9,24.4,146.8,24.4L146.8,24.4z"/>
<path class="st1" d="M162.2,22.6h2.5v3.5c1-1.3,2.1-2.3,3.4-3s2.7-1,4.2-1c2.7,0,5,1,7,2.9s2.9,4.3,2.9,7.1s-1,5.2-2.9,7.2
	s-4.2,2.9-6.9,2.9c-1.5,0-2.9-0.3-4.2-1s-2.4-1.6-3.5-2.8v10.3h-2.5L162.2,22.6L162.2,22.6z M172,24.4c-2.1,0-3.9,0.7-5.4,2.2
	s-2.2,3.3-2.2,5.6c0,1.5,0.3,2.8,1,3.9c0.6,1.2,1.6,2.1,2.8,2.8c1.2,0.7,2.5,1,3.8,1s2.6-0.3,3.7-1c1.2-0.7,2.1-1.6,2.8-2.9
	s1-2.5,1-3.9s-0.3-2.6-1-3.9c-0.7-1.2-1.6-2.2-2.8-2.8S173.4,24.5,172,24.4L172,24.4z"/>
<path class="st1" d="M186.7,22.6h2.5v3.5c1-1.3,2.1-2.3,3.4-3s2.7-1,4.2-1c2.7,0,5,1,7,2.9s2.9,4.3,2.9,7.1s-1,5.2-2.9,7.2
	s-4.2,2.9-6.9,2.9c-1.5,0-2.9-0.3-4.2-1s-2.4-1.6-3.5-2.8v10.3h-2.5L186.7,22.6L186.7,22.6z M196.6,24.4c-2.1,0-3.9,0.7-5.4,2.2
	S189,30,189,32.2c0,1.5,0.3,2.8,1,3.9c0.6,1.2,1.6,2.1,2.8,2.8c1.2,0.7,2.5,1,3.8,1s2.6-0.3,3.7-1c1.2-0.7,2.1-1.6,2.8-2.9
	s1-2.5,1-3.9s-0.3-2.6-1-3.9c-0.7-1.2-1.6-2.2-2.8-2.8S197.9,24.5,196.6,24.4L196.6,24.4z"/>
</svg>
