<?xml version="1.0" encoding="UTF-8"?><svg id="a" xmlns="http://www.w3.org/2000/svg" viewBox="0 0 513.23 390.11"><defs><style>.b{fill:#2e3192;fill-rule:evenodd;}</style></defs><path class="b" d="M276.24,213c14.5-14.5,29.5-28.5,44-43,37.33-37.33,74.67-74.67,112-112l37-37c5.22-5.22,11.87-9.76,16-16h1v-1c-4.33-1.33-8.67-2.67-13-4H39.24c-3.02,2.07-8.18,1.88-11,4h-2C102.23,80.33,178.25,156.67,254.24,233c9.14-3.25,15.6-13.6,22-20Zm-186,66l56-56c8.65-8.65,16.73-20.2,27-27-2.32-6.44-9.51-10.51-14-15-10.67-10.67-21.33-21.33-32-32L43.24,65C31.82,53.58,17.26,34.61,4.24,26-1.47,50.59,.24,87.29,.24,118v216c0,10.58-.65,22,4,28v2h1c6.81-10.27,18.35-18.35,27-27,19.33-19.33,38.67-38.67,58-58ZM512.24,111c0-20.62,4.3-74.65-5-85-41.33,41.66-82.67,83.34-124,125-14.67,14.33-29.33,28.67-44,43-.76,3.68,8.03,9.03,10,11,10,10,20,20,30,30,29,29,58,58,87,87,11.96,11.96,27.38,32.01,41,41v1h1c5.77-24.87,4-62,4-93V111Zm-53,247l-58-58-56-56c-8.65-8.65-20.2-16.73-27-27-8.79,3.13-14.86,12.86-21,19-12.04,12.04-25.73,22.17-38,34-17.01-.22-42.52-31.52-53-42-3.75-3.75-6.54-9.02-12-11-55.99,56.33-112.01,112.67-168,169,6.28,4.82,19.31,4,30,4H452.24c11.65,0,25.33,1.14,32-4h2v-1c-10.27-6.81-18.35-18.35-27-27Z"/></svg>