<?xml version="1.0" encoding="UTF-8"?><svg id="a" xmlns="http://www.w3.org/2000/svg" viewBox="0 0 573 673.3"><defs><style>.b{fill:#231f20;fill-rule:evenodd;}</style></defs><path class="b" d="M517.24,475.93c-11.55-6.33-27.41-7.78-39.82-12.61-9.73-1.55-19.47-3.1-29.2-4.65-29.27-10.5-62.52-10.95-84.29-27.88,1.31-13.07,13.88-23.2,20.58-31.86,18.21-23.53,35.13-49.07,50.44-75,38.75-65.62,35.95-182.42-1.99-248.23-12.09-20.97-31.99-39.12-53.1-51.11-17.58-9.98-41.2-14.36-65.04-17.26-18.76-2.28-43.59-.34-58.41,2.65-67.43,13.64-92.47,35.3-116.15,92.26-9.16,22.04-6.42,45.2-10.62,73.01v84.96c4.14,11.11,2.21,26.62,6.64,37.83,4.2,11.95,8.41,23.9,12.61,35.84-4.47,5.13-15.09,8.7-23.23,5.97-8.61-2.88-14.74-2.3-21.24-6.64-9-6.01-11.24-32.16-11.28-46.46v-80.31c0-12.97-1.15-30.05,1.99-39.82v-63.05c2.39-8.19,.34-21.66,1.99-32.52,2.88-18.93,4.11-45.97,1.99-63.05C87.1,2.39,76-.36,55.96,.04c-3.27,2.48-9.29,2.2-11.95,5.31-13.89,3.68-3.09,33.87-7.3,47.79-3.27,10.82,.61,26.98-1.33,39.82-.66,36.72-1.33,73.46-1.99,110.18,0,81.82-8.82,135.74,39.16,173.23,13.05,10.19,36.01,25.68,63.05,18.58,15.6-4.1,30.35-11.32,44.47-13.94,12.6,10.46,27.08,26.47,35.84,40.49v5.31c-16.87,12.28-38.98,12.9-60.4,21.9-57.99,24.38-120.02,21.63-148.01,77.66-8.52,17.04-12.13,81.66,1.99,95.58,2.36,9.32,19.07,9.52,27.88,12.61,16.79,5.9,37.76,9.92,55.09,16.59,9.51,1.55,19.03,3.1,28.54,4.65,21.62,6.4,48.48,5.6,71.68,11.95,7.52,.22,15.05,.44,22.57,.66,23.84,6.3,76.35,6.01,102.88,1.99,25.67-3.89,48.62,1,70.35-5.97,5.31-.22,10.62-.44,15.93-.66,15.07-4.87,32.19-3.7,48.45-7.96,26.19-6.87,55.95-9.39,80.97-19.25,11.32-4.46,25.8-11.09,38.5-12.61,.22-14.82,.44-29.65,.66-44.47,0-57.23-19.33-83.57-55.75-103.54Zm-223.01-209.74c-82.44,0-121.53,14.69-121.46-73.01,0-10.85,.8-18.16,4.65-26.55,4.15-9.06,13.99-19.33,23.23-23.23,4.09-1.73,9.42-1.46,12.61-3.98h159.29c28.43,8.69,46.01,30.61,39.82,71.02-1.8,11.73,.62,21.42-3.98,29.87-18.65,34.22-63.2,25.89-114.16,25.89Zm107.52-52.43v-30.53c-8.03-7.83-41.06-7.92-57.08-5.97-17.55,2.13-43.85,11.19-63.05,6.64-17.39-4.12-35.07-6.8-58.41-6.64-10.29,4.03-23.3,.56-32.52,5.31-.59,38.83,14.01,78.89,56.42,65.71,6.39,2.4,17.91-1.45,22.57-3.98,13.98-7.6,9.95-30,21.24-39.82h7.96c11.15,9.82,7.26,31.59,20.58,39.82,17.92,11.08,58,6.94,69.03-6.64,2.43-5.97,4.87-11.95,7.3-17.92,1.48-2.35,5.06-3.04,5.97-5.97Zm-160.62,27.21c-8.23,.02-16.01,.26-21.9-2.65-9.09-4.5-20.76-25.61-14.6-41.81,1.83-4.82,6.93-5.65,10.62-8.63,23.63-.1,46.74-.28,61.06,8.63,2.05,28.01-6.69,44.41-35.18,44.47Zm89.6-2.65c-14.99-5.78-17.92-17.4-17.26-39.16,8.34-13.03,15.78-3.99,26.55-11.28,14.69-.03,31.41,.29,43.14,1.99,23.45,33.01-17.08,62.07-52.43,48.45Z"/></svg>