<?xml version="1.0" encoding="UTF-8"?><svg id="a" xmlns="http://www.w3.org/2000/svg" viewBox="0 0 610.43 159.56"><defs><style>.b{fill:#231f20;}.b,.c{fill-rule:evenodd;}.c{fill:#2e3192;}</style></defs><path class="b" d="M314.42,68.97c.34-3.05,2.59-4.38,4.01-6.36,2.86-3.99,6.35-8.5,8.36-13.04,7.47-16.85,1.84-40.76-11.71-46.49-2.97-1.26-5.65-.85-9.37-1.67-12.88-2.84-23.33,5.25-26.76,13.38-1.73,4.1-.92,8.03-2.01,13.04-1.42,6.55,.17,21.58,3.01,25.09-.22,.33-.45,.67-.67,1-3.07,.63-5.04-.14-7.02-1.34-2.36-10.57-.73-24.82-.67-36.79,.02-3.04,1.41-12.29,.33-14.05-.92-1.89-4.11-1.81-7.02-1.67-.39,.27-.56,.27-1.34,.33-.38,.4-.85,.72-1.34,1-.12,11.32-.67,22.63-.67,34.45,0,11.07-.85,15.59,4.01,22.08,2.77,3.69,8.26,6.46,14.72,4.35,1.45-.47,2.71-.46,3.68-1.34,2.29,.43,5.68,4.29,6.36,6.36h.33c-1.18,3.21-12.2,4.75-16.06,6.02-8.91,2.93-15.62,3.92-18.06,13.71-.37,1.48-.79,5.02-.33,7.02,.45,1.9,.89,3.79,1.34,5.69,6.98,2.84,15.03,4.1,23.08,6.02,2.9,.22,5.8,.45,8.7,.67,4.64,1.02,12.78,1.38,17.73,.33,4.25-.9,8.01,.24,12.04-.67,4.57-.78,9.14-1.56,13.71-2.34,4.83-1.34,10.04-3.17,14.72-4.35,.1-6.53,.47-13.72-2.01-17.73-5.66-9.14-21.6-7.44-31.11-12.71Zm-10.03-26.42c-12.68,0-21.04,2.25-20.74-11.37,.04-1.75,.28-3.78,1-5.02,1.8-3.06,3.86-2.28,6.69-4.01,7.37-.13,23.54-1.37,27.76,1.67,2.54,1.83,1.86,3.87,2.68,7.69,.43,2.02,.09,6.04-1,7.69-2.74,4.14-9.5,3.34-16.39,3.34Zm6.36-14.38c-2.45,.45-4.91,.89-7.36,1.34-2.56,.19-5.23-.86-7.36-1.34-3.14-.71-6.58,.47-9.37,.67-.03,5.45,1.05,7.27,3.01,10.37,2.42,.57,7.44,1.42,9.37-.33,2.13-.77,2.66-4.53,3.68-6.36,2.57,.5,1.49,1.83,2.34,4.01,.4,1.02,1.46,1.77,2.01,2.68,2.47,.58,7.76,1.47,9.7-.33,2.99-1.06,3.51-5.71,3.34-10.03-2.8-.2-6.2-1.36-9.37-.67Zm-12.04,9.37c-3.92,1.06-5.7,1.35-9.03-.67-.33-1-.67-2.01-1-3.01,.05-1.68,.37-2.14,.67-3.34,.7-.15,1.53-.32,2.01-.67,3.1,.05,5.75,.69,8.36,1,.22,.42,.36,.69,.67,1-.07,2.69-.83,3.91-1.67,5.69Zm17.73,0c-4.26,1.13-6.32,1.21-9.7-1-.44-1.81-.61-3.26-.33-5.35,1.23-.55,4.04-.54,5.35-1.34,1.24-.04,2.96-.15,3.68,.33,4.53,.14,2.2,5.53,1,7.36Zm97.67,99.34c-6.83-2.9-15.17-1.73-14.72-11.04,1.19-1.28,1.97-2.92,3.68-3.68,6.42-2.84,13.4,1.17,13.38,7.36h5.69c.16-15.32-24.09-16.52-28.43-5.02-.59,1.58-.41,4.54,0,6.02,2.34,8.45,9.82,7.82,17.39,11.04,2.56,1.09,3.55,2.92,5.35,4.68v3.68c-.83,.88-1.34,2.33-2.34,3.01-2.72,1.85-8.33,2.1-11.71,.67-1.5-.64-2.4-2.12-3.68-3.01-.34-1.38-.84-2.45-1-4.01h-5.69c.87,15.68,27.03,16.89,30.44,3.34,.47-1.87-.29-3.94-.67-5.02-1.39-3.95-4.03-6.47-7.69-8.03Zm26.42-14.72c6.92-2.97,13.13,2.07,13.04,8.7h5.69c.16-10.08-9.67-17.2-20.4-13.38-5.54,1.97-8.9,6.96-10.37,13.04v7.36c0,10.85,2.21,17.28,9.7,20.4,10.38,4.33,21.22-2.87,21.07-13.04h-5.69c.07,6.69-7.13,12.21-13.71,8.36-4.72-2.76-5.69-8.44-5.69-16.06v-5.35c.99-4.23,2.74-8.48,6.36-10.03Zm78.94-5.35c-1.41,.88-3.45,.65-5.02,1.34-3.67,1.62-7.04,6.06-8.36,10.03-.86,2.58-.67,5.74-.67,9.03,0,11.85,2.4,17.99,11.04,21.07,1.41,.5,4.28,1.43,6.36,1,7.57-1.56,12.13-4.32,14.72-10.7,1.08-2.68,1-6.06,1-9.7,0-14.4-4.63-22.32-19.07-22.08Zm13.04,21.07c0,9.15-1.57,14.57-8.7,16.39-15.9,4.05-16.15-29.06-5.69-31.78,.29-.22,1.05-.45,1.34-.67,8-.18,11.49,3.27,13.04,9.37v6.69Zm26.09-21.07c-1.37,.86-3.52,.69-5.02,1.34-4.08,1.77-7.37,6.49-8.7,11.04-.11,2.68-.22,5.35-.33,8.03,0,11.97,2.33,17.97,11.04,21.07,1.41,.5,4.28,1.43,6.36,1,7.18-1.48,11.85-4.05,14.38-10.03,1.11-2.62,1.33-5.8,1.34-9.37,.02-14.84-4.2-23.33-19.07-23.08Zm13.04,20.4c0,9.4-1.38,15.17-8.7,17.06-10.26,2.65-12.71-8.47-12.71-17.06,.11-2.23,.22-4.46,.33-6.69,1.6-5.78,3.85-5.83,8.03-8.7,6.81-.14,10.58,2.33,12.38,7.02,.88,2.3,.67,5.3,.67,8.36Zm-79.94-1.34h-19.4v-18.4h-6.02v41.14h6.02v-18.06h19.4v18.06h6.02v-41.14h-6.02v18.4Zm99.68,18.06v-36.46h-6.02v41.14h25.09v-4.68h-19.07ZM0,117.8v40.81H3.68v-16.72c13.16,.23,21.03,1.03,23.75-9.7,.53-2.09,.45-5.45-.33-7.36-3.42-8.3-15.25-7.23-27.09-7.02Zm24.08,13.71c-1.95,8.1-10.3,7.24-20.4,7.02v-17.73c9.36-.2,17.17-.73,19.73,6.02,.39,1.02,1.1,2.89,.67,4.68Zm39.47,15.39c-.9-4-2.46-7.39-6.69-8.03v-.33c5.68-1.44,8.94-10.19,5.02-16.06-3.92-5.86-15.85-4.92-25.76-4.68v40.81h3.68v-18.06c7.58-.12,16.25-1.06,19.07,3.68,1.72,2.89,.02,7.11,1,11.04,.28,1.11,1.03,2.25,1.34,3.34h4.01c-.28-1.75-1.29-2.46-1.67-4.01v-7.69Zm-23.75-9.7v-16.06c12.25-.24,20.45-1.66,19.73,10.7-1.01,1.08-1.44,2.84-2.68,3.68-3.54,2.41-11.19,1.77-17.06,1.67Zm45.16-19.4c-1,3.01-2.01,6.02-3.01,9.03-2.66,6.45-4.59,13.35-7.36,20.07-1.42,3.46-3.87,7.67-4.35,11.71h3.68c1.34-3.68,2.68-7.36,4.01-11.04h17.73c1.23,3.68,2.45,7.36,3.68,11.04h4.01c-4.91-13.6-9.81-27.21-14.72-40.81h-3.68Zm9.37,25.76v.67h-15.05c1.19-4.73,3.12-10.09,5.02-14.72,.78-1.91,2.07-3.96,2.34-6.36,1.1,1.19,.99,3.01,1.67,4.68,1.28,3.13,2.73,6.9,4.01,10.03,.83,2.02,.82,4.11,2.01,5.69Zm42.48-6.69h-22.74v-19.07h-3.68v40.81h3.68v-18.4h22.74v18.4h3.68v-40.81h-3.68v19.07Zm25.76-19.07c-1,3.01-2.01,6.02-3.01,9.03-2.66,6.45-4.59,13.35-7.36,20.07-1.42,3.46-3.87,7.67-4.35,11.71h3.68c1.34-3.68,2.68-7.36,4.01-11.04h17.73c1.23,3.68,2.45,7.36,3.68,11.04h4.01c-4.91-13.6-9.81-27.21-14.72-40.81h-3.68Zm9.37,25.76v.67h-15.05c1.19-4.73,3.12-10.09,5.02-14.72,.78-1.91,2.07-3.96,2.34-6.36,1.1,1.19,.99,3.01,1.67,4.68,1.28,3.13,2.73,6.9,4.01,10.03,.83,2.02,.82,4.11,2.01,5.69Z"/><g><path class="c" d="M215.96,131.16h-7.02c.05-5-2.19-6.04-4.68-8.36-11.72-1.04-12.71,4.17-12.71,15.72,0,3.51-.21,6.98,1,9.37,1.06,2.09,3.11,3.12,4.68,4.68,5.21,.52,10.25,.09,11.04-4.68,.63-.86,.68-2.15,.67-3.68h7.02c.11,10.69-10.84,18.26-21.74,13.71-7.2-3-10.03-9.37-10.03-19.73v-6.36c1.53-6.79,3.92-12.01,9.7-14.38,11.32-4.65,22.22,2.74,22.08,13.71Z"/><path class="c" d="M386.55,129.82h-6.69c-1.47-4.43-1.79-4.29-4.68-7.02-6.55-.6-10.39,.58-12.38,5.35-.9,2.15-.67,5.35-.67,8.36,0,3.01-.58,7.27,.33,9.7,1.63,4.3,7.09,8.69,14.05,6.36,1.25-.42,2.33-1.35,3.34-2.01v-8.03h-8.03v-5.35h15.05c.04,5.25,.58,11.72-.33,16.39-2.5,1.64-4.81,3.73-8.03,4.68-10.76,3.2-19.86-2.67-22.74-9.7-1.21-2.96-1-7.02-1-11.04,0-3.48-.23-6.93,.67-9.7,1.77-5.46,5.72-9.48,11.37-11.04,10.49-2.9,19.8,3.75,19.73,13.04Z"/><path class="c" d="M299.25,117.11h7.36v41.14h-7.36v-41.14Z"/><path class="c" d="M315.64,117.11h7.02c5.8,9.59,11.6,19.18,17.39,28.77h.33v-28.77h7.36v41.14h-7.36c-.97-3.23-3.68-6.01-5.35-8.7-4.1-6.58-8.64-13.53-12.04-20.4h-.33v29.1h-7.02v-41.14Z"/><path class="c" d="M235.03,116.44c-1.16,.72-3,.45-4.35,1-4.25,1.75-7.87,5.87-9.37,10.37-.85,2.56-.67,5.73-.67,9.03,0,12.05,2.5,18.02,11.37,21.07,1.51,.52,4.46,1.47,6.69,1,7.13-1.5,11.86-4.09,14.38-10.03,1.1-2.58,1.33-5.89,1.34-9.37,.03-15-4.37-23.33-19.4-23.08Zm2.54,36.46c-6.11,0-11.05-6.94-11.05-15.51s4.95-15.51,11.05-15.51,11.05,6.94,11.05,15.51-4.95,15.51-11.05,15.51Z"/><path class="c" d="M261.45,117.11v41.14c11.3,.14,22.34,.67,27.09-5.69,1.62-2.17,2.94-5.05,3.68-8.03v-7.69c0-19.64-11.2-19.99-30.77-19.73Zm24.53,26.4c0,5.07-4.36,9.18-9.73,9.18h-7.71c-.35,0-.69-.02-1.03-.05v-30.33c.34-.03,.68-.05,1.03-.05h7.71c5.37,0,9.73,4.11,9.73,9.18v12.08Z"/></g></svg>